<?xml version="1.0" encoding="UTF-8"?>
<svg id="Camada_2" xmlns="http://www.w3.org/2000/svg" version="1.1" viewBox="0 0 200 24.5">
  <!-- Generator: Adobe Illustrator 29.5.0, SVG Export Plug-In . SVG Version: 2.1.0 Build 137)  -->
  <defs>
    <style>
      .st0 {
        fill: #8c0200;
      }
    </style>
  </defs>
  <g id="Camada_2-2">
    <g>
      <path class="st0" d="M9.4.6l6.5,15.1c.8.6,5.9-14.2,6.9-15.1h9.4c-.3.9-2,.2-2.8.9-.5.5-.5,1.8-.5,2.6-.3,4.3-.5,13.5,0,17.6,0,.5.2,1.2.7,1.5.9.5,2.4,0,2.7.8h-12.6v-.4c1.3,0,2.5,0,3.4-1V3.5l-9,20.5L5,3.9v18.2c0,.6,2.5,1.8,3.3,1.5v.4H0c.5-.8,1.8-.3,2.7-1.2.7-.7.5-1,.6-1.9.6-5.8-.5-12.5,0-18.4,0-.5-.3-.7-.7-1C1.8.8.3,1.4,0,.6,0,.6,9.4.6,9.4.6Z"/>
      <path class="st0" d="M109.9.6c4.7.7,7.9,6.8,3,9.7-.9.6-2.6.4-2.4,1.6,6.5.2,8.2,8.3,2.1,11.1-.4.2-3,1-3.1,1h-14.9c.3-.9,2.1-.2,2.8-.9.6-.5.5-1.9.5-2.6.3-4.3.5-13.5,0-17.6,0-.5-.2-1.2-.7-1.5-.8-.5-2.4,0-2.7-.8,4.7.5,10.7-.6,15.3,0h0ZM108.2,9.6c3-3,.1-8.8-4.5-7.8v9.2c1.4,0,3.5-.4,4.5-1.4ZM103.9,22.2c7.8,2.2,8.8-9.6.5-9.9-1,0-.4,0-.6.6-.7,1.9,0,2.8,0,4.6,0,1.3-.7,3.9,0,4.7h0Z"/>
      <path class="st0" d="M82.2.6c5.9.8,8,8.9,1.3,10.4l-.3.9c5.9.8,7.6,7.7,2.2,10.8-.3.2-3.1,1.3-3.3,1.3h-15.3c.4-.9,2.1-.1,2.9-1,.4-.4.4-.7.4-1.2.4-3.7.4-15.2,0-18.8,0-.5-.2-1.2-.7-1.5-.8-.5-2.4,0-2.7-.8,4.7.5,10.7-.6,15.3,0h0ZM75.8,11c7.6.8,8.2-9.7.4-9.2l-.4,9.2ZM75.8,12.3l.5,9.8c.6,2,5.4,0,6-2.2,1.4-4.7-2-7.9-6.5-7.6Z"/>
      <path class="st0" d="M132.1.2c7.1-1.2,14.8,1.9,15.6,9.7,2,19.8-26.7,18.8-24.7.4.5-4.4,4.6-9.4,9.1-10.1ZM134.7,1.5c-8.8,1.4-6.2,27.7,3.9,20.6,4.5-3.1,4.9-22-3.9-20.6Z"/>
      <path class="st0" d="M161.9,13.8c0-3.7.7-7.8,0-11.4-4.3-.4-4.9.7-6.5,4-.3.6.3,1.2-.9.9V.6h20.9v6.7c-1.3-1-1.1-2.8-2.5-4s-3.2-1.2-5-1.1v18.2c.3.8.3,2.3,1,2.8.9.7,2.2,0,2.4.8h-12.1c.2-.8,1.5-.3,2.3-.9.4-.3.6-.5.7-1"/>
      <path class="st0" d="M186.6,13.8c0-3.7.7-7.8,0-11.4-4.3-.4-4.9.7-6.5,4-.3.6.3,1.2-.9.9V.6h20.9v6.7c-1.3-1-1.1-2.8-2.5-4s-3.2-1.2-5-1.1v18.2c.3.8.3,2.3,1,2.8.9.7,2.2,0,2.4.8h-12.1c.2-.8,1.5-.3,2.3-.9.4-.3.6-.5.7-1"/>
      <path class="st0" d="M37.2,24l2.6-2.6L49.6.2c.4,0,2.8,5.6,3.2,6.4,1.3,2.9,5.6,14.7,7.2,16.2.7.6,1.7.5,1.9,1.2h-11.7l3-1.1-1.7-5.3-8.4-.2c-.5,1.5-2.4,4.6-.6,5.7.8.5,2.4,0,2.7.9h-8,0ZM45.6,12.5l-1.7,3.1h6.7l-2.9-7.1c-.4-.3-1.6,2.2-1.7,2.7"/>
    </g>
  </g>
</svg>