<?xml version="1.0" encoding="UTF-8"?>
<svg id="Camada_2" data-name="Camada 2" xmlns="http://www.w3.org/2000/svg" viewBox="0 0 200 24.52">
  <g id="Camada_2-2" data-name="Camada 2">
    <g>
      <path d="M9.42.57l6.49,15.07c.83.64,5.87-14.2,6.9-15.07h9.42c-.34.9-2.05.16-2.83.94-.55.55-.48,1.85-.54,2.6-.29,4.3-.51,13.5.06,17.57.07.51.19,1.23.66,1.52.85.54,2.37-.03,2.65.8h-12.56v-.41c1.27.08,2.48-.04,3.35-1.05V3.5l-9,20.5L5.02,3.92v18.21c0,.63,2.55,1.8,3.35,1.47v.41s-8.37,0-8.37,0c.51-.84,1.82-.31,2.74-1.23.68-.68.55-1.05.63-1.88.57-5.8-.47-12.53-.02-18.44-.02-.5-.27-.74-.66-1.02-.91-.64-2.35-.03-2.69-.87h9.42Z"/>
      <path d="M109.86.57c4.7.66,7.86,6.8,3.02,9.71-.93.56-2.63.44-2.39,1.59,6.52.24,8.19,8.32,2.1,11.09-.39.18-2.97,1.04-3.14,1.04h-14.86c.34-.9,2.05-.16,2.83-.94.55-.55.48-1.85.54-2.6.29-4.3.51-13.5-.06-17.57-.07-.51-.19-1.23-.66-1.52-.85-.54-2.37.03-2.65-.8,4.74.48,10.7-.65,15.28,0ZM108.25,9.63c3.03-2.97.11-8.77-4.46-7.81l.02,9.19c1.38.03,3.44-.41,4.44-1.38ZM103.89,22.23c7.8,2.25,8.85-9.62.51-9.95-.96-.04-.44.08-.62.63-.65,1.94.02,2.82.04,4.6.01,1.31-.73,3.94.08,4.72Z"/>
      <path d="M82.24.57c5.95.84,8.02,8.92,1.3,10.43l-.26.86c5.9.84,7.57,7.68,2.24,10.83-.35.21-3.11,1.32-3.29,1.32h-15.28c.45-.88,2.07-.15,2.94-1.04.41-.42.37-.73.43-1.24.44-3.74.45-15.16-.06-18.83-.07-.51-.19-1.23-.66-1.52-.85-.54-2.37.03-2.65-.8,4.74.48,10.69-.65,15.28,0ZM75.75,11.03c7.62.77,8.23-9.69.42-9.21l-.42,9.21ZM75.75,12.28l.48,9.78c.64,1.96,5.36-.04,6.03-2.22,1.45-4.7-1.97-7.92-6.51-7.56Z"/>
      <path d="M132.14.25c7.08-1.19,14.79,1.88,15.59,9.74,2.01,19.79-26.68,18.83-24.69.41.48-4.45,4.62-9.4,9.1-10.15ZM134.66,1.49c-8.85,1.44-6.25,27.66,3.85,20.61,4.51-3.15,4.89-22.03-3.85-20.61Z"/>
      <path d="M161.92,13.75c.06-3.73.66-7.79-.02-11.45-4.27-.39-4.91.71-6.53,4.04-.28.57.27,1.15-.94.92V.57h20.93v6.7c-1.34-1.04-1.08-2.78-2.53-3.96s-3.24-1.16-5.01-1.07l.05,18.16c.22.8.29,2.29.95,2.81.85.68,2.16-.07,2.35.79h-12.14c.16-.8,1.5-.34,2.27-.87.39-.27.63-.52.66-1.02"/>
      <path d="M186.57,13.75c.06-3.73.66-7.79-.02-11.45-4.27-.39-4.91.71-6.53,4.04-.28.57.27,1.15-.94.92V.57h20.93v6.7c-1.34-1.04-1.08-2.78-2.53-3.96s-3.24-1.16-5.01-1.07l.05,18.16c.22.8.29,2.29.95,2.81.85.68,2.16-.07,2.35.79h-12.14c.16-.8,1.5-.34,2.27-.87.39-.27.63-.52.66-1.02"/>
      <path d="M37.25,24l2.59-2.64L49.59.16c.36,0,2.83,5.57,3.21,6.41,1.32,2.93,5.62,14.73,7.24,16.2.65.59,1.74.51,1.9,1.24h-11.72l2.96-1.11-1.66-5.33-8.35-.19c-.55,1.46-2.4,4.64-.63,5.72.78.48,2.37.09,2.65.9h-7.95ZM45.61,12.48l-1.67,3.15h6.7l-2.93-7.11c-.4-.31-1.61,2.19-1.67,2.72"/>
    </g>
  </g>
</svg>